 http://www.imdb.com/title/tt0041959/

Source: The.Third.Man.1949.BluRay.720p.AC3.x264-CHD Thanks!

Subs: Croatian, Danish, Dutch, English, Farsi-Persian, French, Hungarian, Italian, Spanish and Swedish.

Sample and Screens included.

General
Complete name                    : The Third Man-720p MP4 AAC x264 BRRip 1949-CC.mp4
Format                           : MPEG-4
Format profile                   : Base Media
Codec ID                         : isom
File size                        : 1.74 GiB
Duration                         : 1h 45mn
Overall bit rate                 : 2 362 Kbps
Encoded date                     : UTC 2012-06-18 19:32:41

Video
ID                               : 1
Format                           : AVC
Format/Info                      : Advanced Video Codec
Format profile                   : High@L3.1
Format settings, CABAC           : Yes
Format settings, ReFrames        : 5 frames
Codec ID                         : avc1
Codec ID/Info                    : Advanced Video Coding
Duration                         : 1h 45mn
Bit rate mode                    : Variable
Bit rate                         : 2 214 Kbps
Maximum bit rate                 : 10.3 Mbps
Width                            : 960 pixels
Height                           : 720 pixels
Display aspect ratio             : 4:3
Frame rate mode                  : Variable
Frame rate                       : 23.976 fps
Minimum frame rate               : 19.048 fps
Maximum frame rate               : 24.390 fps
Resolution                       : 24 bits
Colorimetry                      : 4:2:0
Scan type                        : Progressive
Bits/(Pixel*Frame)               : 0.134
Stream size                      : 1.63 GiB (94%)
Writing library                  : x264 core 112

Audio
ID                               : 2
Format                           : AAC
Format/Info                      : Advanced Audio Codec
Format version                   : Version 4
Format profile                   : LC
Format settings, SBR             : No
Format settings, PS              : Yes
Codec ID                         : 40
Duration                         : 1h 45mn
Bit rate mode                    : Variable
Bit rate                         : 144 Kbps
Maximum bit rate                 : 192 Kbps
Channel(s)                       : 2 channels
Channel positions                : Front: L R
Sampling rate                    : 48.0 KHz
Resolution                       : 16 bits
Stream size                      : 108 MiB (6%)
Language                         : English

Enjoy...

Requested by DreamExtractor.

More coming up.